<?xml version="1.0" standalone="no"?>
<!DOCTYPE svg PUBLIC "-//W3C//DTD SVG 20010904//EN"
 "http://www.w3.org/TR/2001/REC-SVG-20010904/DTD/svg10.dtd">
<svg version="1.0" xmlns="http://www.w3.org/2000/svg"
 width="1120.000000pt" height="1120.000000pt" viewBox="0 0 1120.000000 1120.000000"
 preserveAspectRatio="xMidYMid meet">
<metadata>
Created by potrace 1.14, written by Peter Selinger 2001-2017
</metadata>
<g transform="translate(0.000000,1120.000000) scale(0.100000,-0.100000)"
fill="#000000" stroke="none">
<path d="M0 5600 l0 -5600 5600 0 5600 0 0 5600 0 5600 -5600 0 -5600 0 0
-5600z m7206 2110 c31 -12 77 -57 65 -64 -10 -7 -109 -6 -189 0 -56 5 -62 7
-50 21 18 22 87 53 120 53 15 0 39 -5 54 -10z m1093 -364 c18 -21 -14 -50 -40
-36 -20 11 -26 30 -8 30 5 0 7 5 4 10 -10 15 31 12 44 -4z m-964 -32 c13 -5
14 -8 3 -15 -21 -14 -48 -10 -48 6 0 16 17 19 45 9z m102 0 c-3 -3 -12 -4 -19
-1 -8 3 -5 6 6 6 11 1 17 -2 13 -5z m18 -23 c3 -5 1 -12 -4 -15 -12 -8 -41 3
-41 15 0 12 37 12 45 0z m-414 -46 c22 -49 25 -40 -40 -112 -23 -26 -25 -26
-32 -8 -12 31 -10 90 4 116 33 63 42 64 68 4z m389 -236 c0 -15 -31 -78 -41
-85 -5 -3 -21 7 -36 22 -19 19 -22 26 -10 21 15 -6 17 -3 12 13 -5 16 -2 20
14 20 12 0 21 5 21 10 0 6 9 10 20 10 11 0 20 -5 20 -11z m710 -144 c0 6 9 -3
20 -20 19 -29 20 -46 4 -122 -5 -27 -60 -60 -66 -40 -11 28 -8 130 3 143 8 10
8 14 0 14 -6 0 -3 8 7 18 11 12 20 14 24 8 5 -7 8 -7 8 -1z m-894 -29 c8 -8
14 -24 14 -35 0 -12 5 -21 10 -21 6 0 10 -7 10 -15 0 -8 5 -15 10 -15 6 0 10
-6 10 -12 -1 -7 -10 -2 -20 11 -23 27 -27 6 -5 -23 8 -11 15 -30 15 -42 0 -12
9 -33 20 -47 22 -28 26 -47 9 -47 -5 0 -7 -4 -4 -10 3 -5 1 -10 -4 -10 -6 0
-11 -9 -11 -19 0 -38 -31 -33 -71 10 -22 23 -39 48 -39 56 0 7 -4 13 -10 13
-5 0 -10 17 -10 38 1 36 1 37 14 13 13 -23 13 -21 10 24 -2 27 -8 53 -14 59
-19 19 -12 66 13 76 31 12 37 12 53 -4z m194 -256 c17 -16 38 -30 46 -30 9 0
14 -7 12 -17 -2 -12 -13 -18 -30 -18 -22 1 -25 -2 -17 -16 5 -10 14 -19 20
-21 9 -3 7 -12 -5 -30 -10 -15 -23 -25 -31 -22 -18 7 -25 54 -13 79 6 11 7 17
3 13 -7 -6 -44 22 -43 32 1 3 -4 15 -10 26 -23 44 24 47 68 4z m582 -162 c-7
-7 -12 -8 -12 -2 0 14 12 26 19 19 2 -3 -1 -11 -7 -17z m-552 -23 c0 -8 -4
-15 -9 -15 -5 0 -11 7 -15 15 -3 9 0 15 9 15 8 0 15 -7 15 -15z m540 1 c0 -3
-4 -8 -10 -11 -5 -3 -10 -1 -10 4 0 6 5 11 10 11 6 0 10 -2 10 -4z m-50 -50
c0 -2 -7 -9 -15 -16 -12 -10 -15 -10 -15 4 0 9 7 16 15 16 8 0 15 -2 15 -4z
m-440 -680 c0 -3 -4 -8 -10 -11 -5 -3 -10 -1 -10 4 0 6 5 11 10 11 6 0 10 -2
10 -4z m100 -60 c0 -3 -4 -8 -10 -11 -5 -3 -10 -1 -10 4 0 6 5 11 10 11 6 0
10 -2 10 -4z"/>
</g>
</svg>
